<?xml version="1.0" encoding="utf-8"?>
<svg version="1.0" aria-hidden="true" role="img" class="iconify iconify--logos" width="31.88" height="32" preserveAspectRatio="xMidYMid meet" viewBox="0 0 256 257" xmlns="http://www.w3.org/2000/svg">
  <g transform="matrix(0.039937, 0, 0, -0.040961, 24.091602, 224.089584)" fill="#6880FF" stroke="none" style="">
    <g>
      <path d="M2730 4582 c-42 -34 -19 -56 105 -103 86 -33 149 -97 165 -169 17 -78 29 -386 30 -736 l0 -301 -152 -12 c-178 -13 -647 -47 -797 -57 l-103 -7 4 324 c5 367 5 370 75 400 52 22 69 56 53 105 -20 60 -125 125 -290 180 -72 23 -102 28 -202 28 -103 1 -120 -1 -144 -20 -53 -39 -39 -64 45 -75 112 -16 176 -65 208 -162 14 -44 17 -107 21 -424 l3 -371 -28 -6 c-74 -14 -385 -29 -633 -30 -234 -1 -283 2 -331 16 -82 26 -132 67 -171 140 -38 73 -66 86 -94 43 -36 -55 17 -201 116 -321 59 -72 177 -169 238 -196 54 -24 83 -18 133 27 47 42 139 72 349 114 127 25 395 71 415 71 9 0 5 -405 -5 -590 -5 -96 -17 -222 -26 -280 -16 -99 -16 -109 0 -165 14 -48 28 -70 71 -112 60 -58 109 -78 156 -61 61 21 61 10 50 635 -6 312 -9 569 -7 570 5 6 203 22 576 47 201 14 389 28 419 30 l54 5 -6 -232 c-7 -312 -39 -504 -124 -762 -179 -542 -581 -1047 -1142 -1436 -98 -68 -120 -100 -86 -126 29 -21 55 -16 131 26 290 158 595 393 791 610 442 487 653 1036 680 1764 l6 178 231 -6 c444 -11 634 -28 811 -71 244 -59 321 -35 265 82 -40 82 -167 164 -354 230 -69 24 -81 26 -100 14 -11 -8 -46 -27 -76 -44 l-54 -30 -261 -7 c-143 -4 -306 -10 -363 -12 l-103 -5 3 432 c4 482 5 493 72 548 40 33 47 68 22 117 -45 85 -325 197 -521 208 -91 5 -102 4 -125 -15z"/>
    </g>
  </g>
</svg>